<svg data-testid="w3-node-dark" width="32" height="32" viewBox="0 0 32 32" fill="none" xmlns="http://www.w3.org/2000/svg" style="height: 20px; width: 20px;"><mask id="mask_gCFuk" maskUnits="userSpaceOnUse" x="0" y="7" width="32" height="18" style="mask-type: alpha;"><path d="M0.620117 11.96H3.91012L5.08012 16.84L5.91012 20.52H6.00012L6.97012 16.84L8.35012 11.96H11.4501L12.8501 16.84L13.8401 20.52H13.9301L14.7601 16.84L15.9301 11.96H19.0801L15.7501 24.04H12.1801L10.7101 18.93L9.86012 15.8H9.79012L8.96012 18.93L7.49012 24.04H3.99012L0.620117 11.96ZM25.1201 14.33C25.9801 14.33 26.6001 14.17 26.9901 13.84C27.3801 13.51 27.5801 13.1 27.5801 12.61V12.45C27.5801 11.87 27.3901 11.4 27.0201 11.05C26.6401 10.7 26.1101 10.52 25.4201 10.52C24.7801 10.52 24.1701 10.69 23.6001 11.01C23.0301 11.33 22.5501 11.81 22.1501 12.42L19.9901 10.4C20.3001 9.99996 20.6301 9.63996 20.9801 9.30996C21.3301 8.97996 21.7301 8.69996 22.1801 8.45996C22.6201 8.21996 23.1201 8.03996 23.6801 7.90996C24.2401 7.77996 24.8501 7.70996 25.5401 7.70996C26.4001 7.70996 27.1801 7.80996 27.8701 8.00996C28.5701 8.20996 29.1701 8.49996 29.6601 8.86996C30.1601 9.24996 30.5401 9.68996 30.8101 10.22C31.0801 10.74 31.2101 11.32 31.2101 11.97C31.2101 12.48 31.1301 12.94 30.9701 13.35C30.8101 13.76 30.5901 14.12 30.3001 14.43C30.0201 14.74 29.6901 14.99 29.3201 15.18C28.9501 15.37 28.5601 15.51 28.1501 15.58V15.72C28.6301 15.81 29.0701 15.96 29.4701 16.17C29.8701 16.38 30.2301 16.64 30.5301 16.96C30.8301 17.28 31.0601 17.66 31.2301 18.1C31.4001 18.54 31.4801 19.03 31.4801 19.58C31.4801 20.3 31.3301 20.95 31.0401 21.54C30.7501 22.13 30.3301 22.62 29.8001 23.03C29.2601 23.44 28.6201 23.76 27.8701 23.98C27.1201 24.2 26.2901 24.31 25.3901 24.31C24.5801 24.31 23.8601 24.23 23.2301 24.06C22.6001 23.89 22.0501 23.67 21.5901 23.38C21.1301 23.09 20.7201 22.77 20.3701 22.4C20.0301 22.03 19.7201 21.64 19.4601 21.23L22.0101 19.25C22.3601 19.91 22.8001 20.45 23.3101 20.87C23.8201 21.29 24.5201 21.5 25.3901 21.5C26.1701 21.5 26.7801 21.3 27.2201 20.91C27.6601 20.52 27.8801 19.99 27.8801 19.31V19.17C27.8801 18.51 27.6301 18.02 27.1301 17.69C26.6301 17.36 25.9501 17.2 25.0701 17.2H23.6201V14.32H25.1201V14.33Z" fill="black"></path></mask><g mask="url(#mask_gCFuk)"><path d="M32 0H0V32H32V0Z" fill="url(#paint_JyBMZ)"></path></g><defs><linearGradient id="paint_JyBMZ" x1="0" y1="32" x2="32" y2="0" gradientUnits="userSpaceOnUse"><stop offset="0.1" stop-color="#BE95FF"></stop><stop offset="0.9" stop-color="#4589FF"></stop></linearGradient></defs></svg>